<svg xmlns="http://www.w3.org/2000/svg" width="60" height="59.999" viewBox="0 0 60 59.999"><g transform="translate(0 -0.001)"><path d="M58.669,10.118l-27.99-10a2.052,2.052,0,0,0-1.366,0l-27.983,10a2,2,0,0,0,0,3.763L15,18.765V25c0,3.888,13.465,4,15,4s15-.112,15-4V18.765L48,17.7V20a2,2,0,0,0,2,2h2a2,2,0,0,0,2-2V17a2.958,2.958,0,0,0-.326-1.331l5-1.788a2,2,0,0,0,0-3.763ZM43,22.8C39.191,21.066,31.165,21,30,21s-9.191.066-13,1.8V14.088C17.6,13.318,22.316,12,30,12s12.4,1.318,13,2.088ZM30,27c-7.4,0-12.047-1.222-12.916-2,.869-.778,5.518-2,12.916-2s12.047,1.222,12.916,2C42.047,25.778,37.4,27,30,27ZM48.469,15.4,45,16.642V14c0-3.888-13.465-4-15-4s-15,.112-15,4v2.641L2,12,30.014,2,50,9.142v5.042a3.006,3.006,0,0,0-1.531,1.221ZM52,20H50V17a1,1,0,0,1,2,0Zm0-5.856V9.857L58,12Z" fill="#151e8a"/><path d="M57,31a.977.977,0,0,0-.179.016A167.439,167.439,0,0,1,30,33,167.439,167.439,0,0,1,3.179,31.016,1.127,1.127,0,0,0,3,31c-.7,0-3,.793-3,11S2.3,53,3,53a1.139,1.139,0,0,0,.179-.018,156.4,156.4,0,0,1,20.6-1.878l-1.952,4.682a1.992,1.992,0,0,0,2.643,2.567l.765-.327.331.761A1.989,1.989,0,0,0,27.405,60h.025a1.993,1.993,0,0,0,1.833-1.248L31,54.594l1.731,4.142A2,2,0,0,0,34.57,60h.03a1.986,1.986,0,0,0,1.832-1.2l.334-.767.753.323a1.993,1.993,0,0,0,2.649-2.579l-1.914-4.59a152.472,152.472,0,0,1,18.572,1.8A.977.977,0,0,0,57,53c.7,0,3-.793,3-11s-2.3-11-3-11ZM33.2,34.97a21.06,21.06,0,0,1,.721,4.677,6.939,6.939,0,0,0-6.961.647,27.016,27.016,0,0,0-.687-5.332Q28.09,35,30,35C31.093,35,32.154,34.988,33.2,34.97ZM31,51a5,5,0,1,1,5-5A5,5,0,0,1,31,51ZM3,33.5A28.047,28.047,0,0,1,4,42a28.047,28.047,0,0,1-1,8.5A28.047,28.047,0,0,1,2,42,28.047,28.047,0,0,1,3,33.5ZM5.02,50.67C5.567,49.084,6,46.43,6,42s-.433-7.084-.981-8.672a175.455,175.455,0,0,0,19.165,1.583A25.742,25.742,0,0,1,25,42c0,.145,0,.283-.006.422a6.928,6.928,0,0,0-.322,6.552l-.044.106A174.163,174.163,0,0,0,5.02,50.672ZM27.407,58l-.73-1.68a1,1,0,0,0-1.311-.52l-1.683.744,2.345-5.622a6.993,6.993,0,0,0,3.532,1.93Zm9.227-2.2a1,1,0,0,0-1.311.52l-.74,1.663L32.439,52.85a7,7,0,0,0,3.535-1.931l2.34,5.6ZM56.8,50.95a161.951,161.951,0,0,0-19.4-1.8l-.071-.172a6.959,6.959,0,0,0-1.348-7.886,27.834,27.834,0,0,0-.714-6.161A166.923,166.923,0,0,0,56.8,33.049c.464.788,1.2,3.9,1.2,8.951s-.741,8.162-1.2,8.95Z" fill="#151e8a"/></g></svg>